<svg width="529" height="329" viewBox="0 0 529 329" fill="none" xmlns="http://www.w3.org/2000/svg">
<g id="Group 13">
<g id="Group 10">
<ellipse id="Ellipse 1" cx="184.5" cy="137.5" rx="23" ry="18.5" fill="#FFD300"/>
<ellipse id="Ellipse 2" cx="190.5" cy="131.5" rx="22" ry="19.5" fill="#FFD300"/>
<ellipse id="Ellipse 3" cx="206" cy="110.5" rx="25.5" ry="18.5" fill="#FFD300"/>
<ellipse id="Ellipse 4" cx="184.5" cy="114" rx="28" ry="23" fill="#FFD300"/>
<ellipse id="Ellipse 5" cx="240.5" cy="106.5" rx="22" ry="20.5" fill="#FFD300"/>
<ellipse id="Ellipse 6" cx="289.5" cy="104" rx="30" ry="27" fill="#FFD300"/>
<ellipse id="Ellipse 7" cx="229.5" cy="91" rx="23" ry="22" fill="#FFD300"/>
<ellipse id="Ellipse 8" cx="191" cy="88" rx="26.5" ry="21" fill="#FFD300"/>
<ellipse id="Ellipse 9" cx="270" cy="84.5" rx="31.5" ry="29.5" fill="#FFD300"/>
<path id="Vector 1" d="M215 308.5L160 151L207 116.5L243.5 313.5L215 308.5Z" fill="#A80000" stroke="#A80000"/>
<path id="Vector 2" d="M246.016 311.177L209.965 118.256L321.38 108.733L313.091 301.327L246.016 311.177Z" fill="#F60011" stroke="#A80000" stroke-width="5"/>
<ellipse id="Ellipse 10" cx="275" cy="103.5" rx="21.5" ry="20.5" fill="#FFD300"/>
<ellipse id="Ellipse 11" cx="296" cy="112" rx="19.5" ry="21" fill="#FFD300"/>
<circle id="Ellipse 12" cx="277.5" cy="125" r="14" fill="#FFD300"/>
<g id="Group 1">
<ellipse id="Ellipse 13" cx="216.5" cy="39.5" rx="8" ry="8.5" fill="#FFD300"/>
<ellipse id="Ellipse 14" cx="224.5" cy="41.5" rx="8" ry="8.5" fill="#FFD300"/>
<ellipse id="Ellipse 15" cx="218.5" cy="50.5" rx="8" ry="8.5" fill="#FFD300"/>
</g>
<g id="Group 2">
<ellipse id="Ellipse 13_2" cx="286.73" cy="34.2599" rx="5.66667" ry="6.07143" transform="rotate(49 286.73 34.2599)" fill="#FFD300"/>
<ellipse id="Ellipse 14_2" cx="289.369" cy="39.4738" rx="5.66667" ry="6.07143" transform="rotate(49 289.369 39.4738)" fill="#FFD300"/>
<ellipse id="Ellipse 15_2" cx="281.729" cy="40.4838" rx="5.66667" ry="6.07143" transform="rotate(49 281.729 40.4838)" fill="#FFD300"/>
</g>
<g id="Group 3">
<ellipse id="Ellipse 13_3" cx="314.73" cy="41.2599" rx="5.66667" ry="6.07143" transform="rotate(49 314.73 41.2599)" fill="#FFD300"/>
<ellipse id="Ellipse 14_3" cx="317.369" cy="46.4738" rx="5.66667" ry="6.07143" transform="rotate(49 317.369 46.4738)" fill="#FFD300"/>
<ellipse id="Ellipse 15_3" cx="309.729" cy="47.4838" rx="5.66667" ry="6.07143" transform="rotate(49 309.729 47.4838)" fill="#FFD300"/>
</g>
<g id="Group 4">
<ellipse id="Ellipse 13_4" cx="155.73" cy="54.2599" rx="5.66667" ry="6.07143" transform="rotate(49 155.73 54.2599)" fill="#FFD300"/>
<ellipse id="Ellipse 14_4" cx="158.369" cy="59.4738" rx="5.66667" ry="6.07143" transform="rotate(49 158.369 59.4738)" fill="#FFD300"/>
<ellipse id="Ellipse 15_4" cx="150.729" cy="60.4838" rx="5.66667" ry="6.07143" transform="rotate(49 150.729 60.4838)" fill="#FFD300"/>
</g>
<g id="Group 5">
<ellipse id="Ellipse 13_5" cx="187.73" cy="9.2599" rx="5.66667" ry="6.07143" transform="rotate(49 187.73 9.2599)" fill="#FFD300"/>
<ellipse id="Ellipse 14_5" cx="190.369" cy="14.4738" rx="5.66667" ry="6.07143" transform="rotate(49 190.369 14.4738)" fill="#FFD300"/>
<ellipse id="Ellipse 15_5" cx="182.729" cy="15.4838" rx="5.66667" ry="6.07143" transform="rotate(49 182.729 15.4838)" fill="#FFD300"/>
</g>
<g id="Group 7">
<ellipse id="Ellipse 13_6" cx="232.73" cy="223.26" rx="5.66667" ry="6.07143" transform="rotate(49 232.73 223.26)" fill="#FFD300"/>
<ellipse id="Ellipse 14_6" cx="235.369" cy="228.474" rx="5.66667" ry="6.07143" transform="rotate(49 235.369 228.474)" fill="#FFD300"/>
<ellipse id="Ellipse 15_6" cx="227.729" cy="229.484" rx="5.66667" ry="6.07143" transform="rotate(49 227.729 229.484)" fill="#FFD300"/>
</g>
<g id="Group 8">
<ellipse id="Ellipse 13_7" cx="208.73" cy="290.26" rx="5.66667" ry="6.07143" transform="rotate(49 208.73 290.26)" fill="#FFD300"/>
<ellipse id="Ellipse 14_7" cx="211.369" cy="295.474" rx="5.66667" ry="6.07143" transform="rotate(49 211.369 295.474)" fill="#FFD300"/>
<ellipse id="Ellipse 15_7" cx="203.729" cy="296.484" rx="5.66667" ry="6.07143" transform="rotate(49 203.729 296.484)" fill="#FFD300"/>
</g>
<g id="Group 9">
<ellipse id="Ellipse 13_8" cx="318.73" cy="245.26" rx="5.66667" ry="6.07143" transform="rotate(49 318.73 245.26)" fill="#FFD300"/>
<ellipse id="Ellipse 14_8" cx="321.369" cy="250.474" rx="5.66667" ry="6.07143" transform="rotate(49 321.369 250.474)" fill="#FFD300"/>
<ellipse id="Ellipse 15_8" cx="313.729" cy="251.484" rx="5.66667" ry="6.07143" transform="rotate(49 313.729 251.484)" fill="#FFD300"/>
</g>
<g id="Group 6">
<ellipse id="Ellipse 13_9" cx="251.73" cy="8.2599" rx="5.66667" ry="6.07143" transform="rotate(49 251.73 8.2599)" fill="#FFD300"/>
<ellipse id="Ellipse 14_9" cx="254.369" cy="13.4738" rx="5.66667" ry="6.07143" transform="rotate(49 254.369 13.4738)" fill="#FFD300"/>
<ellipse id="Ellipse 15_9" cx="246.729" cy="14.4838" rx="5.66667" ry="6.07143" transform="rotate(49 246.729 14.4838)" fill="#FFD300"/>
</g>
<g id="Vector 3">
<path d="M86 201L61 159.5L140 166V186.5L86 201Z" fill="#A80000"/>
<path d="M143 197.5L4 249.5L44.5 324.5L152 221.5L143 197.5Z" fill="#A80000"/>
<path d="M107.5 281L152 249.5L161.5 267L130.5 313L107.5 281Z" fill="#A80000"/>
<path d="M354.5 153.5L348 140L408 89.5L422.5 136.081L354.5 153.5Z" fill="#A80000"/>
<path d="M359 197.5L357 166L520.5 130.5L525.5 228.5L359 197.5Z" fill="#A80000"/>
<path d="M354.5 237.5L359 216L425 230.577L408 267L354.5 237.5Z" fill="#A80000"/>
<path d="M86 201L61 159.5L140 166V186.5L86 201Z" stroke="#A80000" stroke-width="5"/>
<path d="M143 197.5L4 249.5L44.5 324.5L152 221.5L143 197.5Z" stroke="#A80000" stroke-width="5"/>
<path d="M107.5 281L152 249.5L161.5 267L130.5 313L107.5 281Z" stroke="#A80000" stroke-width="5"/>
<path d="M354.5 153.5L348 140L408 89.5L422.5 136.081L354.5 153.5Z" stroke="#A80000" stroke-width="5"/>
<path d="M359 197.5L357 166L520.5 130.5L525.5 228.5L359 197.5Z" stroke="#A80000" stroke-width="5"/>
<path d="M354.5 237.5L359 216L425 230.577L408 267L354.5 237.5Z" stroke="#A80000" stroke-width="5"/>
</g>
</g>
<path id="POP KORN" d="M249.943 160.826C250.634 161.652 251.129 162.714 251.429 164.012L251.435 164.046C251.463 164.207 251.492 164.368 251.52 164.529C251.544 164.667 251.557 164.807 251.559 164.949C251.615 166.076 251.426 167.152 250.99 168.176C250.578 169.197 249.992 170.106 249.232 170.903C248.472 171.7 247.59 172.342 246.586 172.827C245.578 173.289 244.506 173.525 243.37 173.536C243.45 173.854 243.518 174.173 243.575 174.495C243.628 174.794 243.707 175.242 243.812 175.839C243.913 176.414 244.051 177.195 244.225 178.183C244.422 179.167 244.692 180.494 245.034 182.163L245.04 182.198C245.017 182.202 244.996 182.217 244.977 182.244C244.977 182.244 244.965 182.246 244.942 182.25C244.637 182.399 244.235 182.541 243.738 182.676C243.26 182.784 242.747 182.898 242.199 183.018C241.671 183.111 241.14 183.193 240.607 183.263C240.075 183.334 239.609 183.38 239.211 183.403C238.846 181.738 238.491 179.929 238.147 177.975C237.798 175.999 237.442 173.977 237.077 171.909C236.713 169.841 236.334 167.763 235.943 165.676C235.574 163.585 235.187 161.592 234.782 159.697C235.679 159.278 236.669 158.914 237.752 158.605C238.858 158.291 239.97 158.083 241.09 157.981C242.232 157.874 243.36 157.888 244.473 158.024C245.583 158.136 246.595 158.431 247.508 158.91C248.441 159.362 249.253 160 249.943 160.826ZM245.953 164.196C245.743 163.948 245.473 163.759 245.142 163.628C244.486 163.269 243.769 163.1 242.991 163.119C242.208 163.114 241.465 163.269 240.762 163.583C240.716 163.591 240.684 163.608 240.665 163.635C240.761 164.045 240.838 164.481 240.896 164.945C240.977 165.405 241.058 165.864 241.139 166.324C241.243 166.779 241.345 167.223 241.445 167.656C241.564 168.061 241.711 168.426 241.887 168.751L241.99 168.733C242.354 168.645 242.742 168.564 243.156 168.491C243.566 168.395 243.962 168.29 244.344 168.175C244.75 168.056 245.126 167.907 245.474 167.727C245.84 167.521 246.137 167.255 246.364 166.931C246.503 166.646 246.579 166.336 246.591 166.002C246.626 165.664 246.581 165.34 246.455 165.031C246.353 164.717 246.185 164.439 245.953 164.196ZM264.544 155.942C265.316 156.422 265.911 157.039 266.328 157.795C266.55 158.111 266.728 158.447 266.861 158.803C267.014 159.131 267.146 159.475 267.256 159.835C267.404 160.401 267.528 160.972 267.629 161.546C267.75 162.094 267.849 162.657 267.927 163.235C268.073 164.465 268.259 165.653 268.484 166.797C268.71 167.942 268.882 169.12 269.001 170.331L269.098 171.487C269.194 172.3 269.211 173.138 269.15 174.001C269.085 174.842 268.905 175.632 268.609 176.371C268.315 176.992 267.877 177.531 267.295 177.989C266.731 178.42 266.109 178.79 265.429 179.1C264.818 179.397 264.183 179.628 263.525 179.791C262.89 179.95 262.235 180.066 261.56 180.137C261.07 180.177 260.587 180.191 260.111 180.18C259.662 180.188 259.215 180.136 258.769 180.026C258.346 179.911 257.949 179.744 257.579 179.525C257.204 179.283 256.873 178.95 256.585 178.527C256.162 178.009 255.837 177.439 255.608 176.816C255.399 176.165 255.224 175.509 255.083 174.847C254.698 173.067 254.302 171.288 253.894 169.512C253.505 167.709 253.208 165.89 253.003 164.054C252.843 163.016 252.787 161.96 252.835 160.885C252.901 159.784 253.22 158.768 253.79 157.838C253.979 157.568 254.207 157.314 254.474 157.078C255.167 156.576 255.936 156.168 256.781 155.853C257.645 155.512 258.517 155.287 259.399 155.179C260.303 155.067 261.193 155.076 262.069 155.205C262.964 155.308 263.789 155.554 264.544 155.942ZM264.415 168.51L264.123 166.856L263.641 164.524C263.637 164.501 263.573 164.275 263.45 163.847C263.346 163.391 263.248 162.97 263.157 162.584C262.997 161.948 262.71 161.395 262.295 160.923C261.903 160.447 261.421 160.129 260.848 159.97C260.356 159.867 259.878 159.916 259.416 160.116C258.954 160.316 258.563 160.586 258.244 160.926C257.549 161.689 257.149 162.577 257.043 163.59C257.014 164.496 257.061 165.435 257.185 166.409C257.332 167.378 257.514 168.341 257.73 169.298C257.987 170.082 258.213 170.895 258.409 171.737C258.601 172.556 258.878 173.325 259.242 174.042C259.553 174.462 259.949 174.759 260.43 174.935C260.911 175.111 261.408 175.177 261.922 175.134C262.432 175.067 262.925 174.909 263.402 174.659C263.875 174.386 264.25 174.024 264.526 173.573C264.684 173.261 264.795 173.016 264.858 172.839C264.918 172.639 264.941 172.433 264.927 172.223C264.914 172.012 264.871 171.77 264.8 171.499C264.747 171.2 264.701 170.805 264.662 170.315C264.604 169.851 264.544 169.447 264.484 169.102C264.446 168.753 264.423 168.556 264.415 168.51ZM283.738 154.867C284.429 155.693 284.924 156.755 285.224 158.053L285.23 158.087C285.258 158.248 285.287 158.409 285.315 158.57C285.339 158.708 285.352 158.848 285.354 158.99C285.41 160.117 285.221 161.193 284.785 162.217C284.373 163.238 283.787 164.147 283.027 164.944C282.267 165.741 281.385 166.383 280.381 166.868C279.373 167.33 278.301 167.566 277.165 167.577C277.245 167.895 277.313 168.214 277.37 168.536C277.423 168.835 277.502 169.283 277.607 169.88C277.708 170.455 277.846 171.236 278.02 172.224C278.218 173.208 278.487 174.535 278.829 176.204L278.835 176.239C278.812 176.243 278.791 176.258 278.772 176.285C278.772 176.285 278.76 176.287 278.737 176.291C278.432 176.44 278.031 176.582 277.533 176.717C277.055 176.825 276.542 176.939 275.994 177.059C275.466 177.152 274.935 177.234 274.403 177.304C273.87 177.375 273.404 177.421 273.006 177.444C272.641 175.779 272.286 173.97 271.942 172.016C271.593 170.04 271.237 168.018 270.872 165.95C270.508 163.882 270.129 161.804 269.738 159.717C269.369 157.626 268.982 155.633 268.577 153.738C269.474 153.319 270.464 152.955 271.547 152.646C272.653 152.332 273.765 152.124 274.885 152.022C276.027 151.915 277.155 151.929 278.268 152.065C279.378 152.177 280.39 152.472 281.303 152.951C282.236 153.403 283.048 154.041 283.738 154.867ZM279.748 158.237C279.538 157.989 279.268 157.8 278.937 157.669C278.281 157.31 277.564 157.141 276.786 157.16C276.003 157.155 275.26 157.31 274.557 157.624C274.511 157.632 274.479 157.649 274.46 157.676C274.556 158.086 274.633 158.522 274.691 158.986C274.772 159.446 274.853 159.905 274.934 160.365C275.038 160.82 275.14 161.264 275.24 161.697C275.359 162.102 275.506 162.467 275.682 162.792L275.785 162.774C276.149 162.686 276.538 162.605 276.951 162.532C277.361 162.437 277.757 162.331 278.139 162.216C278.545 162.097 278.921 161.948 279.269 161.768C279.635 161.562 279.932 161.296 280.159 160.972C280.298 160.687 280.374 160.377 280.386 160.043C280.421 159.705 280.376 159.382 280.25 159.072C280.148 158.758 279.98 158.48 279.748 158.237ZM253.67 206.955C253.289 208.017 252.976 209.068 252.733 210.106L260.784 221.303C260.078 221.593 259.283 221.792 258.402 221.9C257.544 222.004 256.745 222.11 256.006 222.216C255.426 221.75 254.862 221.174 254.315 220.489C253.763 219.78 253.22 219.047 252.683 218.289C252.169 217.526 251.658 216.775 251.149 216.036C250.639 215.296 250.144 214.637 249.663 214.059C249.757 214.729 249.873 215.455 250.011 216.236C250.168 216.991 250.326 217.756 250.487 218.534C250.648 219.311 250.795 220.079 250.929 220.837C251.086 221.591 251.221 222.29 251.334 222.933C251.029 223.082 250.66 223.206 250.227 223.306C249.799 223.429 249.343 223.533 248.86 223.618C248.378 223.703 247.903 223.764 247.435 223.799C246.99 223.83 246.613 223.837 246.302 223.821C245.421 219.901 244.688 215.943 244.102 211.947C243.534 207.925 242.885 203.905 242.153 199.888C242.907 199.731 243.679 199.607 244.468 199.515C245.276 199.396 246.048 199.272 246.784 199.142C247.061 200.444 247.315 201.821 247.547 203.272C247.78 204.724 248.034 206.101 248.311 207.402C248.315 207.425 248.325 207.412 248.34 207.362C248.373 207.285 248.409 207.219 248.447 207.165C248.82 206.46 249.143 205.739 249.417 205.004C249.69 204.269 249.938 203.526 250.161 202.776C250.407 202.022 250.653 201.267 250.899 200.513C251.168 199.755 251.483 198.989 251.844 198.214C252.588 198.131 253.369 197.993 254.188 197.801C255.007 197.609 255.795 197.506 256.55 197.491C256.445 198.505 256.224 199.539 255.889 200.593C255.577 201.643 255.218 202.702 254.814 203.768C254.433 204.83 254.051 205.893 253.67 206.955ZM269.678 196.669C270.45 197.149 271.044 197.767 271.462 198.522C271.683 198.839 271.861 199.175 271.995 199.53C272.148 199.859 272.279 200.203 272.39 200.562C272.537 201.129 272.662 201.699 272.763 202.273C272.883 202.821 272.982 203.384 273.061 203.962C273.207 205.192 273.392 206.38 273.618 207.525C273.843 208.67 274.016 209.848 274.134 211.059L274.231 212.214C274.327 213.027 274.345 213.865 274.284 214.729C274.219 215.569 274.038 216.359 273.742 217.099C273.449 217.719 273.011 218.258 272.428 218.716C271.864 219.148 271.243 219.518 270.563 219.827C269.952 220.124 269.317 220.355 268.659 220.518C268.023 220.678 267.369 220.793 266.694 220.865C266.203 220.904 265.72 220.918 265.244 220.907C264.796 220.915 264.348 220.864 263.902 220.753C263.479 220.638 263.082 220.471 262.712 220.252C262.338 220.01 262.007 219.677 261.719 219.254C261.296 218.736 260.97 218.166 260.742 217.543C260.532 216.893 260.357 216.236 260.217 215.574C259.832 213.794 259.436 212.016 259.028 210.24C258.639 208.436 258.341 206.617 258.136 204.781C257.977 203.743 257.921 202.687 257.968 201.612C258.035 200.511 258.353 199.495 258.924 198.565C259.113 198.295 259.341 198.042 259.607 197.805C260.301 197.304 261.07 196.896 261.915 196.581C262.778 196.239 263.651 196.014 264.532 195.906C265.436 195.794 266.327 195.803 267.202 195.933C268.097 196.036 268.922 196.281 269.678 196.669ZM269.548 209.237L269.257 207.583L268.774 205.251C268.77 205.228 268.707 205.003 268.584 204.574C268.48 204.119 268.382 203.698 268.29 203.311C268.131 202.676 267.844 202.122 267.429 201.65C267.037 201.174 266.554 200.857 265.981 200.697C265.489 200.594 265.012 200.643 264.55 200.843C264.087 201.043 263.697 201.313 263.378 201.654C262.683 202.416 262.283 203.304 262.177 204.318C262.147 205.223 262.194 206.163 262.319 207.136C262.466 208.105 262.647 209.068 262.864 210.025C263.12 210.809 263.347 211.622 263.542 212.464C263.734 213.284 264.012 214.052 264.375 214.77C264.686 215.189 265.082 215.486 265.563 215.662C266.045 215.838 266.542 215.904 267.056 215.861C267.565 215.795 268.059 215.637 268.536 215.387C269.009 215.114 269.383 214.752 269.659 214.3C269.817 213.988 269.928 213.743 269.992 213.566C270.051 213.366 270.074 213.161 270.061 212.95C270.047 212.739 270.005 212.498 269.933 212.226C269.881 211.927 269.835 211.533 269.795 211.042C269.737 210.578 269.678 210.174 269.617 209.829C269.579 209.481 269.556 209.283 269.548 209.237ZM292.671 212.908C293.331 213.692 293.916 214.525 294.426 215.406L294.461 215.4C293.657 215.542 292.767 215.734 291.791 215.978C290.811 216.198 289.798 216.365 288.751 216.478L288.717 216.484C288.394 215.996 287.995 215.415 287.521 214.74C287.047 214.066 286.532 213.363 285.976 212.631C285.421 211.9 284.833 211.186 284.213 210.49C283.592 209.794 282.988 209.19 282.4 208.677L282.313 208.586C282.337 209.127 282.418 209.788 282.556 210.569C282.69 211.327 282.841 212.118 283.01 212.941C283.198 213.737 283.379 214.499 283.555 215.226C283.731 215.953 283.868 216.533 283.968 216.966C283.606 217.196 283.107 217.39 282.472 217.55C281.86 217.705 281.243 217.837 280.623 217.947C280.007 218.079 279.444 218.178 278.934 218.245C278.447 218.307 278.149 218.359 278.038 218.403C278.084 218.394 278.064 218.078 277.977 217.454C277.887 216.806 277.75 215.965 277.568 214.931C277.386 213.897 277.177 212.714 276.942 211.381C276.703 210.025 276.446 208.637 276.172 207.217C275.917 205.769 275.643 204.348 275.349 202.955C275.075 201.534 274.823 200.24 274.594 199.072C274.36 197.881 274.147 196.876 273.956 196.057C273.783 195.211 273.647 194.642 273.548 194.352C274.803 193.941 276.185 193.519 277.697 193.087C279.208 192.655 280.818 192.383 282.528 192.271C283.896 192.101 285.183 192.277 286.389 192.798C287.594 193.32 288.589 194.057 289.373 195.009C290.157 195.961 290.673 197.078 290.923 198.361C291.192 199.616 291.076 200.904 290.574 202.225C290.283 203.129 289.819 203.922 289.181 204.603C288.566 205.28 287.713 205.75 286.622 206.014L286.484 206.038L286.45 206.044L286.456 206.079C287.088 206.844 287.767 207.601 288.491 208.35C289.211 209.076 289.922 209.815 290.624 210.568C291.325 211.321 292.007 212.101 292.671 212.908ZM281.719 197.354C280.941 197.514 280.179 197.826 279.431 198.29C279.507 198.585 279.579 198.927 279.648 199.318C279.736 199.682 279.814 200.059 279.883 200.449C279.952 200.84 280.019 201.219 280.084 201.587C280.172 201.95 280.261 202.255 280.351 202.499L280.386 202.493C280.922 202.446 281.503 202.379 282.127 202.293C282.752 202.206 283.332 202.068 283.867 201.879C284.288 201.71 284.582 201.433 284.751 201.048C284.939 200.636 285.02 200.219 284.993 199.797C284.962 199.352 284.841 198.935 284.63 198.546C284.415 198.134 284.124 197.83 283.758 197.634C283.172 197.263 282.492 197.17 281.719 197.354ZM309.959 212.881C309.806 212.955 309.535 213.026 309.144 213.095C308.684 213.176 308.15 213.235 307.54 213.272C306.935 213.331 306.402 213.401 305.943 213.482C304.884 211.915 303.836 210.406 302.799 208.954C301.78 207.475 300.876 206.047 300.088 204.67L299.561 203.697C299.425 203.46 299.292 203.246 299.164 203.056C299.055 202.838 298.977 202.733 298.931 202.742C298.908 202.746 298.922 203.027 298.973 203.587C299.048 204.143 299.148 204.847 299.275 205.702C299.402 206.556 299.545 207.502 299.705 208.54C299.887 209.574 300.063 210.574 300.233 211.539C300.327 212.068 300.418 212.585 300.507 213.09C300.592 213.573 300.68 214.007 300.772 214.394C300.532 214.507 300.287 214.598 300.038 214.665C299.79 214.733 299.539 214.789 299.286 214.834C298.735 214.931 298.166 214.996 297.579 215.028C297.015 215.056 296.469 215.117 295.941 215.21L295.515 212.797C295.13 210.614 294.741 208.539 294.346 206.571C293.975 204.599 293.599 202.533 293.218 200.373C292.938 198.787 292.686 197.22 292.46 195.673C292.231 194.102 292.044 192.571 291.899 191.08C292.121 190.994 292.356 190.917 292.605 190.849C292.876 190.778 293.15 190.718 293.426 190.669C293.564 190.645 293.796 190.616 294.121 190.582C294.443 190.525 294.769 190.492 295.099 190.481C295.424 190.447 295.706 190.433 295.944 190.438C296.205 190.44 296.339 190.463 296.348 190.509C296.581 190.895 296.792 191.213 296.978 191.464C297.165 191.716 297.337 191.958 297.497 192.19C297.679 192.419 297.868 192.682 298.063 192.979C298.276 193.249 298.529 193.608 298.821 194.054C298.887 194.161 299.029 194.361 299.246 194.654C299.464 194.947 299.715 195.294 299.998 195.694C300.278 196.071 300.575 196.481 300.89 196.923C301.201 197.342 301.483 197.731 301.736 198.089C302.007 198.42 302.236 198.711 302.423 198.963C302.605 199.191 302.708 199.303 302.731 199.299C302.792 199.241 302.809 199.001 302.782 198.58C302.755 198.158 302.707 197.752 302.638 197.361C302.476 196.442 302.303 195.596 302.119 194.823C301.954 194.022 301.799 193.209 301.653 192.381C301.568 191.899 301.483 191.416 301.398 190.934C301.332 190.424 301.26 189.88 301.181 189.302C301.938 189.026 302.753 188.811 303.627 188.657C304.477 188.507 305.247 188.442 305.938 188.463L307.895 199.562C308.088 200.523 308.272 201.497 308.446 202.485C308.62 203.473 308.794 204.462 308.969 205.45C309.086 206.116 309.188 206.761 309.275 207.386C309.384 208.006 309.495 208.638 309.609 209.282C309.69 209.741 309.771 210.201 309.852 210.66C309.956 211.116 310.049 211.574 310.13 212.033L310.251 212.722C310.209 212.754 310.112 212.806 309.959 212.881Z" fill="white"/>
</g>
</svg>
