<svg width="455" height="129" viewBox="0 0 455 129" fill="none" xmlns="http://www.w3.org/2000/svg">
<g id="Group 12">
<g id="Group 11">
<ellipse id="Ellipse 1" cx="73.9541" cy="52.9661" rx="9.04123" ry="7.12635" fill="#FFD300"/>
<ellipse id="Ellipse 2" cx="76.3126" cy="50.6549" rx="8.64813" ry="7.51156" fill="#FFD300"/>
<ellipse id="Ellipse 3" cx="82.4056" cy="42.5655" rx="10.024" ry="7.12635" fill="#FFD300"/>
<ellipse id="Ellipse 4" cx="73.954" cy="43.9137" rx="11.0067" ry="8.85978" fill="#FFD300"/>
<ellipse id="Ellipse 5" cx="95.9675" cy="41.0247" rx="8.64813" ry="7.89676" fill="#FFD300"/>
<ellipse id="Ellipse 6" cx="115.229" cy="40.0616" rx="11.7929" ry="10.4006" fill="#FFD300"/>
<ellipse id="Ellipse 7" cx="91.6433" cy="35.0539" rx="9.04123" ry="8.47458" fill="#FFD300"/>
<ellipse id="Ellipse 8" cx="76.5091" cy="33.8983" rx="10.4171" ry="8.08937" fill="#FFD300"/>
<ellipse id="Ellipse 9" cx="107.564" cy="32.5501" rx="12.3826" ry="11.3636" fill="#FFD300"/>
<path id="Vector 1" d="M85.9434 118.837L64.3231 58.1664L82.7987 44.8767L97.1467 120.763L85.9434 118.837Z" fill="#A80000" stroke="#A80000"/>
<path id="Vector 2" d="M99.3515 118.141L85.7745 46.9436L126.169 43.5604L123.043 114.731L99.3515 118.141Z" fill="#F60011" stroke="#A80000" stroke-width="5"/>
<ellipse id="Ellipse 10" cx="109.529" cy="39.869" rx="8.45158" ry="7.89676" fill="#FFD300"/>
<ellipse id="Ellipse 11" cx="117.784" cy="43.1433" rx="7.66539" ry="8.08937" fill="#FFD300"/>
<ellipse id="Ellipse 12" cx="110.512" cy="48.151" rx="5.50336" ry="5.39291" fill="#FFD300"/>
<g id="Group 1">
<ellipse id="Ellipse 13" cx="86.5331" cy="15.2157" rx="3.14477" ry="3.27427" fill="#FFD300"/>
<ellipse id="Ellipse 14" cx="89.6779" cy="15.9861" rx="3.14477" ry="3.27427" fill="#FFD300"/>
<ellipse id="Ellipse 15" cx="87.3193" cy="19.453" rx="3.14477" ry="3.27427" fill="#FFD300"/>
</g>
<g id="Group 2">
<ellipse id="Ellipse 13_2" cx="2.2022" cy="2.36616" rx="2.2022" ry="2.36616" transform="matrix(0.663611 0.748078 -0.761247 0.648462 114.48 10.0154)" fill="#FFD300"/>
<ellipse id="Ellipse 14_2" cx="2.2022" cy="2.36616" rx="2.2022" ry="2.36616" transform="matrix(0.663611 0.748078 -0.761247 0.648462 115.518 12.0238)" fill="#FFD300"/>
<ellipse id="Ellipse 15_2" cx="2.2022" cy="2.36616" rx="2.2022" ry="2.36616" transform="matrix(0.663611 0.748078 -0.761247 0.648462 112.514 12.4129)" fill="#FFD300"/>
</g>
<g id="Group 3">
<ellipse id="Ellipse 13_3" cx="2.2022" cy="2.36616" rx="2.2022" ry="2.36616" transform="matrix(0.663611 0.748078 -0.761247 0.648462 125.487 12.7119)" fill="#FFD300"/>
<ellipse id="Ellipse 14_3" cx="2.2022" cy="2.36616" rx="2.2022" ry="2.36616" transform="matrix(0.663611 0.748078 -0.761247 0.648462 126.524 14.7203)" fill="#FFD300"/>
<ellipse id="Ellipse 15_3" cx="2.2022" cy="2.36616" rx="2.2022" ry="2.36616" transform="matrix(0.663611 0.748078 -0.761247 0.648462 123.521 15.1094)" fill="#FFD300"/>
</g>
<g id="Group 4">
<ellipse id="Ellipse 13_4" cx="2.2022" cy="2.36616" rx="2.2022" ry="2.36616" transform="matrix(0.663611 0.748078 -0.761247 0.648462 62.9843 17.7196)" fill="#FFD300"/>
<ellipse id="Ellipse 14_4" cx="2.2022" cy="2.36616" rx="2.2022" ry="2.36616" transform="matrix(0.663611 0.748078 -0.761247 0.648462 64.0219 19.728)" fill="#FFD300"/>
<ellipse id="Ellipse 15_4" cx="2.2022" cy="2.36616" rx="2.2022" ry="2.36616" transform="matrix(0.663611 0.748078 -0.761247 0.648462 61.0187 20.1171)" fill="#FFD300"/>
</g>
<g id="Group 5">
<ellipse id="Ellipse 13_5" cx="2.2022" cy="2.36616" rx="2.2022" ry="2.36616" transform="matrix(0.663611 0.748078 -0.761247 0.648462 75.5634 0.385208)" fill="#FFD300"/>
<ellipse id="Ellipse 14_5" cx="2.2022" cy="2.36616" rx="2.2022" ry="2.36616" transform="matrix(0.663611 0.748078 -0.761247 0.648462 76.601 2.39365)" fill="#FFD300"/>
<ellipse id="Ellipse 15_5" cx="2.2022" cy="2.36616" rx="2.2022" ry="2.36616" transform="matrix(0.663611 0.748078 -0.761247 0.648462 73.5978 2.78271)" fill="#FFD300"/>
</g>
<g id="Group 7">
<ellipse id="Ellipse 13_6" cx="2.2022" cy="2.36616" rx="2.2022" ry="2.36616" transform="matrix(0.663611 0.748078 -0.761247 0.648462 93.2528 82.8197)" fill="#FFD300"/>
<ellipse id="Ellipse 14_6" cx="2.2022" cy="2.36616" rx="2.2022" ry="2.36616" transform="matrix(0.663611 0.748078 -0.761247 0.648462 94.2904 84.8282)" fill="#FFD300"/>
<ellipse id="Ellipse 15_6" cx="2.2022" cy="2.36616" rx="2.2022" ry="2.36616" transform="matrix(0.663611 0.748078 -0.761247 0.648462 91.2871 85.2172)" fill="#FFD300"/>
</g>
<g id="Group 8">
<ellipse id="Ellipse 13_7" cx="2.2022" cy="2.36616" rx="2.2022" ry="2.36616" transform="matrix(0.663611 0.748078 -0.761247 0.648462 83.8185 108.629)" fill="#FFD300"/>
<ellipse id="Ellipse 14_7" cx="2.2022" cy="2.36616" rx="2.2022" ry="2.36616" transform="matrix(0.663611 0.748078 -0.761247 0.648462 84.8561 110.637)" fill="#FFD300"/>
<ellipse id="Ellipse 15_7" cx="2.2022" cy="2.36616" rx="2.2022" ry="2.36616" transform="matrix(0.663611 0.748078 -0.761247 0.648462 81.8528 111.026)" fill="#FFD300"/>
</g>
<g id="Group 9">
<ellipse id="Ellipse 13_8" cx="2.2022" cy="2.36616" rx="2.2022" ry="2.36616" transform="matrix(0.663611 0.748078 -0.761247 0.648462 125.933 95)" fill="#FFD300"/>
<ellipse id="Ellipse 14_8" cx="2.2022" cy="2.36616" rx="2.2022" ry="2.36616" transform="matrix(0.663611 0.748078 -0.761247 0.648462 126.971 97.0084)" fill="#FFD300"/>
<ellipse id="Ellipse 15_8" cx="2.2022" cy="2.36616" rx="2.2022" ry="2.36616" transform="matrix(0.663611 0.748078 -0.761247 0.648462 123.968 97.3975)" fill="#FFD300"/>
</g>
<g id="Group 6">
<ellipse id="Ellipse 13_9" cx="2.2022" cy="2.36616" rx="2.2022" ry="2.36616" transform="matrix(0.663611 0.748078 -0.761247 0.648462 100.722 0)" fill="#FFD300"/>
<ellipse id="Ellipse 14_9" cx="2.2022" cy="2.36616" rx="2.2022" ry="2.36616" transform="matrix(0.663611 0.748078 -0.761247 0.648462 101.759 2.00844)" fill="#FFD300"/>
<ellipse id="Ellipse 15_9" cx="2.2022" cy="2.36616" rx="2.2022" ry="2.36616" transform="matrix(0.663611 0.748078 -0.761247 0.648462 98.756 2.39751)" fill="#FFD300"/>
</g>
<g id="Vector 3">
<path d="M35.2339 77.4268L25.4065 61.4407L56.4612 63.9445V71.8413L35.2339 77.4268Z" fill="#A80000"/>
<path d="M57.6405 76.0786L3 96.1094L18.9204 125L61.1783 85.3236L57.6405 76.0786Z" fill="#A80000"/>
<path d="M43.6855 108.243L61.1783 96.1094L64.9128 102.851L52.7267 120.57L43.6855 108.243Z" fill="#A80000"/>
<path d="M140.78 59.1294L138.225 53.9291L161.811 34.4761L167.511 52.4194L140.78 59.1294Z" fill="#A80000"/>
<path d="M142.549 76.0786L141.763 63.9445L206.035 50.2696L208 88.02L142.549 76.0786Z" fill="#A80000"/>
<path d="M140.78 91.4869L142.549 83.2049L168.494 88.82L161.811 102.851L140.78 91.4869Z" fill="#A80000"/>
<path d="M35.2339 77.4268L25.4065 61.4407L56.4612 63.9445V71.8413L35.2339 77.4268Z" stroke="#A80000" stroke-width="4"/>
<path d="M57.6405 76.0786L3 96.1094L18.9204 125L61.1783 85.3236L57.6405 76.0786Z" stroke="#A80000" stroke-width="4"/>
<path d="M43.6855 108.243L61.1783 96.1094L64.9128 102.851L52.7267 120.57L43.6855 108.243Z" stroke="#A80000" stroke-width="4"/>
<path d="M140.78 59.1294L138.225 53.9291L161.811 34.4761L167.511 52.4194L140.78 59.1294Z" stroke="#A80000" stroke-width="4"/>
<path d="M142.549 76.0786L141.763 63.9445L206.035 50.2696L208 88.02L142.549 76.0786Z" stroke="#A80000" stroke-width="4"/>
<path d="M140.78 91.4869L142.549 83.2049L168.494 88.82L161.811 102.851L140.78 91.4869Z" stroke="#A80000" stroke-width="4"/>
</g>
</g>
<path id="POPKORN" d="M252.312 51.368C253.293 53.0747 253.848 55.144 253.976 57.576V57.64C253.976 57.9387 253.976 58.2373 253.976 58.536C253.976 58.792 253.955 59.048 253.912 59.304C253.656 61.352 252.973 63.2293 251.864 64.936C250.797 66.6427 249.453 68.0933 247.832 69.288C246.211 70.4827 244.419 71.3573 242.456 71.912C240.493 72.424 238.488 72.5093 236.44 72.168C236.483 72.7653 236.504 73.3627 236.504 73.96C236.504 74.5147 236.504 75.3467 236.504 76.456C236.504 77.5227 236.504 78.9733 236.504 80.808C236.547 82.6427 236.611 85.1173 236.696 88.232V88.296C236.653 88.296 236.611 88.3173 236.568 88.36C236.568 88.36 236.547 88.36 236.504 88.36C235.907 88.5307 235.139 88.6587 234.2 88.744C233.304 88.7867 232.344 88.8293 231.32 88.872C230.339 88.872 229.357 88.8507 228.376 88.808C227.395 88.7653 226.541 88.7013 225.816 88.616C225.688 85.5013 225.624 82.1307 225.624 78.504C225.624 74.8347 225.624 71.08 225.624 67.24C225.624 63.4 225.603 59.5387 225.56 55.656C225.56 51.7733 225.496 48.0613 225.368 44.52C227.117 44.0507 229.016 43.7093 231.064 43.496C233.155 43.2827 235.224 43.2613 237.272 43.432C239.363 43.6027 241.389 43.9867 243.352 44.584C245.315 45.1387 247.043 45.992 248.536 47.144C250.072 48.2533 251.331 49.6613 252.312 51.368ZM244.056 56.168C243.757 55.656 243.331 55.2293 242.776 54.888C241.709 54.0347 240.472 53.5013 239.064 53.288C237.656 53.032 236.269 53.0747 234.904 53.416C234.819 53.416 234.755 53.4373 234.712 53.48C234.755 54.248 234.755 55.0587 234.712 55.912C234.712 56.7653 234.712 57.6187 234.712 58.472C234.755 59.3253 234.797 60.1573 234.84 60.968C234.925 61.736 235.075 62.44 235.288 63.08H235.48C236.163 63.0373 236.888 63.016 237.656 63.016C238.424 62.9733 239.171 62.9093 239.896 62.824C240.664 62.7387 241.389 62.5893 242.072 62.376C242.797 62.12 243.416 61.736 243.928 61.224C244.269 60.7547 244.504 60.2213 244.632 59.624C244.803 59.0267 244.824 58.4293 244.696 57.832C244.611 57.2347 244.397 56.68 244.056 56.168ZM280.157 47.208C281.394 48.3173 282.269 49.6187 282.781 51.112C283.079 51.752 283.293 52.4133 283.421 53.096C283.591 53.736 283.719 54.3973 283.805 55.08C283.89 56.1467 283.933 57.2133 283.933 58.28C283.975 59.304 283.975 60.3493 283.933 61.416C283.805 63.6773 283.762 65.8747 283.805 68.008C283.847 70.1413 283.783 72.3173 283.613 74.536L283.421 76.648C283.335 78.1413 283.101 79.656 282.717 81.192C282.333 82.6853 281.757 84.0507 280.989 85.288C280.263 86.312 279.303 87.144 278.109 87.784C276.957 88.3813 275.719 88.8507 274.397 89.192C273.202 89.5333 271.986 89.7467 270.749 89.832C269.554 89.9173 268.338 89.9173 267.101 89.832C266.205 89.7467 265.33 89.6187 264.477 89.448C263.666 89.32 262.877 89.0853 262.109 88.744C261.383 88.4027 260.722 87.976 260.125 87.464C259.527 86.9093 259.037 86.2053 258.653 85.352C258.055 84.2853 257.65 83.1547 257.437 81.96C257.266 80.7227 257.159 79.4853 257.117 78.248C256.989 74.92 256.839 71.592 256.669 68.264C256.541 64.8933 256.583 61.5227 256.797 58.152C256.839 56.232 257.074 54.312 257.501 52.392C257.97 50.4293 258.866 48.7013 260.189 47.208C260.615 46.7813 261.106 46.3973 261.661 46.056C263.069 45.3733 264.583 44.8827 266.205 44.584C267.869 44.2427 269.511 44.1147 271.133 44.2C272.797 44.2853 274.397 44.584 275.933 45.096C277.511 45.5653 278.919 46.2693 280.157 47.208ZM275.933 69.8V66.728L275.805 62.376C275.805 62.3333 275.762 61.9067 275.677 61.096C275.634 60.2427 275.591 59.4533 275.549 58.728C275.463 57.5333 275.122 56.4453 274.525 55.464C273.97 54.4827 273.202 53.7573 272.221 53.288C271.367 52.9467 270.493 52.8827 269.597 53.096C268.701 53.3093 267.911 53.672 267.229 54.184C265.735 55.336 264.733 56.808 264.22 58.6C263.879 60.2213 263.666 61.928 263.581 63.72C263.538 65.512 263.559 67.304 263.645 69.096C263.858 70.5893 264.007 72.1253 264.093 73.704C264.178 75.24 264.434 76.712 264.861 78.12C265.287 78.9733 265.906 79.6347 266.717 80.104C267.527 80.5733 268.402 80.8507 269.341 80.936C270.279 80.9787 271.218 80.8507 272.157 80.552C273.095 80.2107 273.885 79.6773 274.525 78.952C274.909 78.44 275.186 78.0347 275.357 77.736C275.527 77.3947 275.634 77.032 275.677 76.648C275.719 76.264 275.719 75.816 275.677 75.304C275.677 74.7493 275.719 74.024 275.805 73.128C275.847 72.2747 275.869 71.528 275.869 70.888C275.911 70.248 275.933 69.8853 275.933 69.8ZM315.062 51.368C316.043 53.0747 316.598 55.144 316.726 57.576V57.64C316.726 57.9387 316.726 58.2373 316.726 58.536C316.726 58.792 316.705 59.048 316.662 59.304C316.406 61.352 315.723 63.2293 314.614 64.936C313.547 66.6427 312.203 68.0933 310.582 69.288C308.961 70.4827 307.169 71.3573 305.206 71.912C303.243 72.424 301.238 72.5093 299.19 72.168C299.233 72.7653 299.254 73.3627 299.254 73.96C299.254 74.5147 299.254 75.3467 299.254 76.456C299.254 77.5227 299.254 78.9733 299.254 80.808C299.297 82.6427 299.361 85.1173 299.446 88.232V88.296C299.403 88.296 299.361 88.3173 299.318 88.36C299.318 88.36 299.297 88.36 299.254 88.36C298.657 88.5307 297.889 88.6587 296.95 88.744C296.054 88.7867 295.094 88.8293 294.07 88.872C293.089 88.872 292.107 88.8507 291.126 88.808C290.145 88.7653 289.291 88.7013 288.566 88.616C288.438 85.5013 288.374 82.1307 288.374 78.504C288.374 74.8347 288.374 71.08 288.374 67.24C288.374 63.4 288.353 59.5387 288.31 55.656C288.31 51.7733 288.246 48.0613 288.118 44.52C289.867 44.0507 291.766 43.7093 293.814 43.496C295.905 43.2827 297.974 43.2613 300.022 43.432C302.113 43.6027 304.139 43.9867 306.102 44.584C308.065 45.1387 309.793 45.992 311.286 47.144C312.822 48.2533 314.081 49.6613 315.062 51.368ZM306.806 56.168C306.507 55.656 306.081 55.2293 305.526 54.888C304.459 54.0347 303.222 53.5013 301.814 53.288C300.406 53.032 299.019 53.0747 297.654 53.416C297.569 53.416 297.505 53.4373 297.462 53.48C297.505 54.248 297.505 55.0587 297.462 55.912C297.462 56.7653 297.462 57.6187 297.462 58.472C297.505 59.3253 297.547 60.1573 297.59 60.968C297.675 61.736 297.825 62.44 298.038 63.08H298.23C298.913 63.0373 299.638 63.016 300.406 63.016C301.174 62.9733 301.921 62.9093 302.646 62.824C303.414 62.7387 304.139 62.5893 304.822 62.376C305.547 62.12 306.166 61.736 306.678 61.224C307.019 60.7547 307.254 60.2213 307.382 59.624C307.553 59.0267 307.574 58.4293 307.446 57.832C307.361 57.2347 307.147 56.68 306.806 56.168ZM338.939 60.648C337.915 62.44 337.019 64.232 336.251 66.024L347.195 88.744C345.829 89.0427 344.336 89.1493 342.715 89.064C341.136 88.9787 339.664 88.9147 338.299 88.872C337.403 87.848 336.571 86.632 335.803 85.224C335.035 83.7733 334.288 82.28 333.562 80.744C332.88 79.208 332.197 77.6933 331.515 76.2C330.832 74.7067 330.149 73.3627 329.467 72.168C329.424 73.4053 329.403 74.7493 329.403 76.2C329.445 77.608 329.488 79.0373 329.531 80.488C329.573 81.9387 329.595 83.368 329.595 84.776C329.637 86.184 329.659 87.4853 329.659 88.68C329.061 88.8507 328.357 88.9573 327.547 89C326.736 89.0853 325.883 89.128 324.987 89.128C324.091 89.128 323.216 89.0853 322.363 89C321.552 88.9147 320.869 88.808 320.315 88.68C319.973 81.3413 319.909 73.9813 320.123 66.6C320.379 59.176 320.485 51.7307 320.443 44.264C321.851 44.2213 323.28 44.2427 324.731 44.328C326.224 44.3707 327.653 44.392 329.019 44.392C329.104 46.824 329.125 49.384 329.083 52.072C329.04 54.76 329.061 57.32 329.147 59.752C329.147 59.7947 329.168 59.7733 329.211 59.688C329.296 59.56 329.381 59.4533 329.467 59.368C330.363 58.216 331.173 57.0213 331.899 55.784C332.624 54.5467 333.307 53.288 333.947 52.008C334.629 50.728 335.312 49.448 335.995 48.168C336.72 46.888 337.531 45.608 338.427 44.328C339.792 44.4133 341.243 44.4133 342.779 44.328C344.315 44.2427 345.765 44.3067 347.131 44.52C346.619 46.312 345.893 48.104 344.955 49.896C344.059 51.688 343.077 53.48 342.011 55.272C340.987 57.064 339.963 58.856 338.939 60.648ZM371.032 47.208C372.269 48.3173 373.144 49.6187 373.656 51.112C373.954 51.752 374.168 52.4133 374.296 53.096C374.466 53.736 374.594 54.3973 374.68 55.08C374.765 56.1467 374.808 57.2133 374.808 58.28C374.85 59.304 374.85 60.3493 374.808 61.416C374.68 63.6773 374.637 65.8747 374.68 68.008C374.722 70.1413 374.658 72.3173 374.488 74.536L374.296 76.648C374.21 78.1413 373.976 79.656 373.592 81.192C373.208 82.6853 372.632 84.0507 371.864 85.288C371.138 86.312 370.178 87.144 368.984 87.784C367.832 88.3813 366.594 88.8507 365.272 89.192C364.077 89.5333 362.861 89.7467 361.624 89.832C360.429 89.9173 359.213 89.9173 357.976 89.832C357.08 89.7467 356.205 89.6187 355.352 89.448C354.541 89.32 353.752 89.0853 352.984 88.744C352.258 88.4027 351.597 87.976 351 87.464C350.402 86.9093 349.912 86.2053 349.528 85.352C348.93 84.2853 348.525 83.1547 348.312 81.96C348.141 80.7227 348.034 79.4853 347.992 78.248C347.864 74.92 347.714 71.592 347.544 68.264C347.416 64.8933 347.458 61.5227 347.672 58.152C347.714 56.232 347.949 54.312 348.376 52.392C348.845 50.4293 349.741 48.7013 351.064 47.208C351.49 46.7813 351.981 46.3973 352.536 46.056C353.944 45.3733 355.458 44.8827 357.08 44.584C358.744 44.2427 360.386 44.1147 362.008 44.2C363.672 44.2853 365.272 44.584 366.808 45.096C368.386 45.5653 369.794 46.2693 371.032 47.208ZM366.808 69.8V66.728L366.68 62.376C366.68 62.3333 366.637 61.9067 366.552 61.096C366.509 60.2427 366.466 59.4533 366.424 58.728C366.338 57.5333 365.997 56.4453 365.4 55.464C364.845 54.4827 364.077 53.7573 363.096 53.288C362.242 52.9467 361.368 52.8827 360.472 53.096C359.576 53.3093 358.786 53.672 358.104 54.184C356.61 55.336 355.608 56.808 355.095 58.6C354.754 60.2213 354.541 61.928 354.456 63.72C354.413 65.512 354.434 67.304 354.52 69.096C354.733 70.5893 354.882 72.1253 354.968 73.704C355.053 75.24 355.309 76.712 355.736 78.12C356.162 78.9733 356.781 79.6347 357.592 80.104C358.402 80.5733 359.277 80.8507 360.216 80.936C361.154 80.9787 362.093 80.8507 363.032 80.552C363.97 80.2107 364.76 79.6773 365.4 78.952C365.784 78.44 366.061 78.0347 366.232 77.736C366.402 77.3947 366.509 77.032 366.552 76.648C366.594 76.264 366.594 75.816 366.552 75.304C366.552 74.7493 366.594 74.024 366.68 73.128C366.722 72.2747 366.744 71.528 366.744 70.888C366.786 70.248 366.808 69.8853 366.808 69.8ZM407.281 83.752C408.22 85.3733 409.009 87.0587 409.649 88.808H409.713C408.22 88.808 406.556 88.872 404.721 89C402.886 89.0853 401.009 89.064 399.089 88.936H399.025C398.598 87.9547 398.065 86.7813 397.425 85.416C396.785 84.0507 396.081 82.6213 395.313 81.128C394.545 79.6347 393.713 78.1627 392.817 76.712C391.921 75.2613 391.025 73.9813 390.129 72.872L390.001 72.68C389.873 73.6613 389.809 74.8773 389.809 76.328C389.809 77.736 389.83 79.208 389.873 80.744C389.958 82.2373 390.044 83.6667 390.129 85.032C390.214 86.3973 390.278 87.4853 390.321 88.296C389.596 88.5947 388.636 88.7867 387.441 88.872C386.289 88.9573 385.137 89 383.985 89C382.833 89.0427 381.788 89.0427 380.849 89C379.953 88.9573 379.398 88.9573 379.185 89C379.27 89 379.334 88.424 379.377 87.272C379.42 86.0773 379.441 84.52 379.441 82.6C379.441 80.68 379.441 78.4827 379.441 76.008C379.441 73.4907 379.42 70.9093 379.377 68.264C379.377 65.576 379.334 62.9307 379.249 60.328C379.206 57.6827 379.164 55.272 379.121 53.096C379.078 50.8773 379.014 49 378.929 47.464C378.886 45.8853 378.822 44.8187 378.737 44.264C381.126 43.9227 383.75 43.6027 386.609 43.304C389.468 43.0053 392.454 43.0267 395.569 43.368C398.086 43.496 400.348 44.2213 402.353 45.544C404.358 46.8667 405.916 48.5093 407.025 50.472C408.134 52.4347 408.71 54.6107 408.753 57C408.838 59.3467 408.22 61.6293 406.897 63.848C406.086 65.384 404.998 66.664 403.633 67.688C402.31 68.712 400.625 69.288 398.577 69.416H398.321H398.257V69.48C399.153 71.0587 400.134 72.6373 401.201 74.216C402.268 75.752 403.313 77.3093 404.337 78.888C405.361 80.4667 406.342 82.088 407.281 83.752ZM392.497 52.264C391.046 52.3067 389.574 52.6267 388.081 53.224C388.124 53.7787 388.145 54.4187 388.145 55.144C388.188 55.8267 388.209 56.5307 388.209 57.256C388.209 57.9813 388.209 58.6853 388.209 59.368C388.252 60.0507 388.316 60.6267 388.401 61.096H388.465C389.446 61.1813 390.513 61.2453 391.665 61.288C392.817 61.3307 393.905 61.2667 394.929 61.096C395.74 60.9253 396.358 60.52 396.785 59.88C397.254 59.1973 397.532 58.472 397.617 57.704C397.702 56.8933 397.617 56.104 397.361 55.336C397.105 54.5253 396.678 53.8853 396.081 53.416C395.142 52.5627 393.948 52.1787 392.497 52.264ZM438.422 89.192C438.123 89.2773 437.611 89.32 436.886 89.32C436.033 89.32 435.051 89.256 433.942 89.128C432.833 89.0427 431.851 89 430.998 89C429.59 85.8427 428.182 82.792 426.774 79.848C425.409 76.8613 424.235 74.0027 423.254 71.272L422.614 69.352C422.443 68.8827 422.273 68.456 422.102 68.072C421.974 67.6453 421.867 67.432 421.782 67.432C421.739 67.432 421.675 67.944 421.59 68.968C421.547 69.992 421.505 71.2933 421.462 72.872C421.419 74.4507 421.377 76.2 421.334 78.12C421.334 80.04 421.334 81.896 421.334 83.688C421.334 84.6693 421.334 85.6293 421.334 86.568C421.334 87.464 421.355 88.2747 421.398 89C420.929 89.128 420.459 89.2133 419.99 89.256C419.521 89.2987 419.051 89.32 418.582 89.32C417.558 89.32 416.513 89.256 415.446 89.128C414.422 89 413.419 88.936 412.438 88.936V84.456C412.438 80.4027 412.395 76.5413 412.31 72.872C412.267 69.2027 412.246 65.3627 412.246 61.352C412.246 58.408 412.289 55.5067 412.374 52.648C412.459 49.7467 412.609 46.9307 412.822 44.2C413.249 44.1147 413.697 44.0507 414.166 44.008C414.678 43.9653 415.19 43.944 415.702 43.944C415.958 43.944 416.385 43.9653 416.982 44.008C417.579 44.008 418.177 44.0507 418.774 44.136C419.371 44.1787 419.883 44.2427 420.31 44.328C420.779 44.4133 421.014 44.4987 421.014 44.584C421.313 45.352 421.59 45.992 421.846 46.504C422.102 47.016 422.337 47.5067 422.55 47.976C422.806 48.4453 423.062 48.9787 423.318 49.576C423.617 50.1307 423.958 50.856 424.342 51.752C424.427 51.9653 424.619 52.3707 424.918 52.968C425.217 53.5653 425.558 54.2693 425.942 55.08C426.326 55.848 426.731 56.68 427.158 57.576C427.585 58.4293 427.969 59.2187 428.31 59.944C428.694 60.6267 429.014 61.224 429.27 61.736C429.526 62.2053 429.675 62.44 429.718 62.44C429.846 62.3547 429.953 61.928 430.038 61.16C430.123 60.392 430.166 59.6453 430.166 58.92C430.166 57.2133 430.123 55.6347 430.038 54.184C429.995 52.6907 429.974 51.176 429.974 49.64C429.974 48.744 429.974 47.848 429.974 46.952C430.017 46.0133 430.059 45.0107 430.102 43.944C431.553 43.688 433.089 43.56 434.71 43.56C436.289 43.56 437.697 43.688 438.934 43.944V64.552C438.977 66.344 438.998 68.1573 438.998 69.992C438.998 71.8267 438.998 73.6613 438.998 75.496C438.998 76.7333 438.977 77.928 438.934 79.08C438.934 80.232 438.934 81.4053 438.934 82.6C438.934 83.4533 438.934 84.3067 438.934 85.16C438.977 86.0133 438.998 86.8667 438.998 87.72V89C438.913 89.0427 438.721 89.1067 438.422 89.192Z" fill="#FED201"/>
</g>
</svg>
